<?xml version="1.0" standalone="no"?>
<!DOCTYPE svg PUBLIC "-//W3C//DTD SVG 20010904//EN"
 "http://www.w3.org/TR/2001/REC-SVG-20010904/DTD/svg10.dtd">
<svg version="1.0" xmlns="http://www.w3.org/2000/svg"
 width="480.000000pt" height="480.000000pt" viewBox="0 0 480.000000 480.000000"
 preserveAspectRatio="xMidYMid meet">
<metadata>
Created by potrace 1.14, written by Peter Selinger 2001-2017
</metadata>
<g transform="translate(0.000000,480.000000) scale(0.100000,-0.100000)"
fill="#000000" stroke="none">
<path d="M1112 4178 c-27 -13 -55 -38 -75 -67 l-32 -46 -3 -952 c-1 -616 -6
-953 -12 -954 -6 -1 -14 -2 -18 -3 -4 0 -38 -18 -74 -40 -316 -185 -393 -613
-161 -897 62 -75 207 -179 250 -179 8 0 12 -45 15 -153 3 -151 4 -155 32 -195
39 -57 84 -83 154 -88 71 -6 130 22 173 81 35 50 37 59 39 220 l1 130 67 32
c210 100 337 315 328 552 -7 184 -79 329 -222 449 -27 23 -55 42 -61 42 -6 0
-16 6 -22 13 -6 8 -29 20 -51 27 l-40 13 -2 952 -3 952 -29 41 c-59 86 -162
114 -254 70z m193 -2409 c86 -58 117 -162 75 -251 -59 -127 -223 -156 -319
-58 -129 133 -34 344 151 336 41 -2 67 -10 93 -27z"/>
<path d="M2330 4186 c-51 -23 -88 -57 -109 -101 -18 -39 -21 -63 -21 -183 l0
-138 -35 -13 c-50 -18 -154 -89 -198 -136 -54 -58 -101 -131 -125 -197 -30
-79 -33 -100 -38 -204 -9 -233 133 -465 339 -555 l57 -24 1 -930 c0 -511 2
-938 4 -948 8 -40 44 -94 81 -120 90 -63 213 -40 277 52 l32 46 3 953 c1 615
6 952 12 953 6 1 14 2 18 3 4 0 38 19 75 40 343 201 396 675 107 955 -36 34
-152 109 -182 116 l-26 7 -4 151 c-3 139 -5 155 -27 190 -36 58 -90 90 -159
92 -31 2 -68 -2 -82 -9z m183 -824 c57 -41 82 -92 82 -169 0 -53 -5 -68 -32
-105 -73 -102 -214 -117 -298 -32 -47 47 -63 88 -60 154 5 116 92 194 209 186
45 -3 68 -11 99 -34z"/>
<path d="M3511 4178 c-46 -25 -98 -87 -105 -128 -3 -14 -5 -444 -5 -955 l-1
-931 -35 -13 c-124 -44 -266 -187 -319 -321 -19 -47 -22 -59 -36 -125 -14 -67
-5 -213 18 -285 51 -159 175 -300 316 -361 l56 -24 1 -130 c1 -150 1 -153 27
-203 45 -89 171 -127 261 -80 46 25 98 87 105 128 3 14 5 84 5 155 l1 131 34
12 c54 20 147 85 202 141 217 224 214 609 -6 827 -69 68 -94 87 -164 119 l-65
30 -3 951 -3 951 -29 41 c-39 57 -84 83 -154 88 -46 4 -66 0 -101 -18z m149
-2388 c37 -10 96 -60 118 -98 35 -62 23 -164 -25 -218 -77 -88 -202 -97 -283
-22 -50 46 -65 82 -65 152 0 52 5 68 32 107 52 75 134 104 223 79z"/>
</g>
</svg>
